<?xml version="1.0" encoding="UTF-8" standalone="no"?>
<!-- Created with Inkscape (http://www.inkscape.org/) -->

<svg
   width="100"
   height="100"
   viewBox="0 0 26.458334 26.458334"
   version="1.1"
   id="svg7271"
   xml:space="preserve"
   inkscape:version="1.2 (dc2aedaf03, 2022-05-15)"
   sodipodi:docname="delete.svg"
   xmlns:inkscape="http://www.inkscape.org/namespaces/inkscape"
   xmlns:sodipodi="http://sodipodi.sourceforge.net/DTD/sodipodi-0.dtd"
   xmlns="http://www.w3.org/2000/svg"
   xmlns:svg="http://www.w3.org/2000/svg"><sodipodi:namedview
     id="namedview7273"
     pagecolor="#ffffff"
     bordercolor="#666666"
     borderopacity="1.0"
     inkscape:showpageshadow="2"
     inkscape:pageopacity="0.0"
     inkscape:pagecheckerboard="0"
     inkscape:deskcolor="#d1d1d1"
     inkscape:document-units="mm"
     showgrid="true"
     inkscape:zoom="5.6168515"
     inkscape:cx="35.429101"
     inkscape:cy="57.416509"
     inkscape:window-width="1920"
     inkscape:window-height="1051"
     inkscape:window-x="-9"
     inkscape:window-y="-9"
     inkscape:window-maximized="1"
     inkscape:current-layer="layer1"><inkscape:grid
       type="xygrid"
       id="grid8877"
       originx="0"
       originy="0" /></sodipodi:namedview><defs
     id="defs7268" /><g
     inkscape:label="Слой 1"
     inkscape:groupmode="layer"
     id="layer1"><path
       style="fill:#808c91;stroke-width:0.147902;fill-opacity:0.90196079"
       d="M 6.4331478,24.924809 C 5.6665253,24.631064 5.1485455,24.080394 5.0110633,23.412978 4.9388723,23.062517 3.6312302,8.4833668 3.6312302,8.0289492 c 0,-0.043645 0.1138633,-0.1754232 0.2530311,-0.2928395 0.2240415,-0.1890272 1.2926902,-0.213485 9.3276507,-0.213485 10.42582,0 9.683866,-0.094532 9.522126,1.2132055 -0.05147,0.4161739 -0.356036,3.8745338 -0.676811,7.6852438 -0.665999,7.9119 -0.660552,7.888815 -1.995834,8.456923 -0.70791,0.301186 -0.808339,0.305629 -6.843344,0.302689 -5.6247876,-0.0028 -6.178783,-0.02363 -6.7849012,-0.255877 z M 9.0303014,22.510965 C 9.2649237,22.313011 9.2870137,22.062853 9.201253,20.575043 9.1470855,19.635316 9.0238277,16.78788 8.9273486,14.247407 8.8193216,11.40286 8.6860374,9.5604868 8.5804063,9.4516779 8.4860647,9.3545006 8.2215322,9.2933661 7.9925485,9.3158245 l -0.4163317,0.040831 0.048168,3.6001365 c 0.076589,5.725279 0.2676094,9.325806 0.5077118,9.569896 0.2688766,0.273343 0.561676,0.268215 0.8982131,-0.01572 z m 4.6555416,-0.07461 c 0.217919,-0.262499 0.250658,-1.106537 0.250658,-6.462006 0,-3.98649 -0.05881,-6.2527896 -0.166684,-6.4228448 -0.216902,-0.341943 -0.898907,-0.341943 -1.115809,0 -0.107931,0.1701515 -0.166685,2.4529738 -0.166685,6.4763408 0,5.591139 0.0267,6.23845 0.266486,6.462005 0.353112,0.329202 0.627397,0.313459 0.932034,-0.0535 z m 4.573104,0.123664 c 0.224452,-0.228181 0.313686,-1.576387 0.517326,-7.816221 0.12529,-3.839039 0.11993,-5.1200387 -0.02203,-5.2643502 -0.219869,-0.2235232 -0.887789,-0.2541666 -1.039051,-0.047661 -0.07843,0.1070696 -0.511535,9.9171012 -0.552555,12.5156512 -0.0097,0.616587 0.701464,1.013989 1.096304,0.612592 z M 2.8583346,6.2727653 C 2.593666,6.0494615 2.6154316,5.280664 2.899545,4.8171135 3.284966,4.188277 4.0150843,3.9904149 5.9500949,3.9904149 h 1.706628 l 0.00355,-0.4415263 C 7.6659005,2.8402526 8.1930176,2.031187 8.8856301,1.6679246 9.4984096,1.3465333 9.5710765,1.3412587 13.385478,1.3412587 h 3.87701 l 0.591461,0.3806212 c 0.740153,0.4763109 1.074181,1.0106552 1.074181,1.718372 v 0.550163 h 1.626118 c 1.849538,0 2.589604,0.2059948 2.970042,0.8266986 0.284115,0.4635505 0.305882,1.232348 0.04121,1.4556518 -0.279237,0.2355956 -20.427917,0.2355956 -20.7071544,0 z M 17.478939,3.6130816 c 0,-0.2075342 -0.112799,-0.5132061 -0.25066,-0.6792717 -0.246325,-0.296713 -0.312988,-0.3019368 -3.85279,-0.3019368 H 9.7733588 L 9.4396312,2.9898301 C 9.2560817,3.1867054 9.1059049,3.492378 9.1059049,3.669101 v 0.3213139 h 4.1865161 4.186518 z"
       id="path4006" /></g></svg>
