<?xml version="1.0" encoding="UTF-8" standalone="no"?>
<!-- Created with Inkscape (http://www.inkscape.org/) -->

<svg
   width="100"
   height="100"
   viewBox="0 0 26.458334 26.458334"
   version="1.1"
   id="svg7271"
   xml:space="preserve"
   inkscape:version="1.2 (dc2aedaf03, 2022-05-15)"
   sodipodi:docname="cancel.svg"
   xmlns:inkscape="http://www.inkscape.org/namespaces/inkscape"
   xmlns:sodipodi="http://sodipodi.sourceforge.net/DTD/sodipodi-0.dtd"
   xmlns="http://www.w3.org/2000/svg"
   xmlns:svg="http://www.w3.org/2000/svg"><sodipodi:namedview
     id="namedview7273"
     pagecolor="#ffffff"
     bordercolor="#666666"
     borderopacity="1.0"
     inkscape:showpageshadow="2"
     inkscape:pageopacity="0.0"
     inkscape:pagecheckerboard="0"
     inkscape:deskcolor="#d1d1d1"
     inkscape:document-units="mm"
     showgrid="true"
     inkscape:zoom="4.4608926"
     inkscape:cx="19.278653"
     inkscape:cy="56.378851"
     inkscape:window-width="1920"
     inkscape:window-height="1051"
     inkscape:window-x="-9"
     inkscape:window-y="-9"
     inkscape:window-maximized="1"
     inkscape:current-layer="layer1"><inkscape:grid
       type="xygrid"
       id="grid8877"
       originx="0"
       originy="0" /></sodipodi:namedview><defs
     id="defs7268" /><g
     inkscape:label="Слой 1"
     inkscape:groupmode="layer"
     id="layer1"><path
       style="fill:#808c91;fill-opacity:0.901961;stroke-width:0.0466358"
       d="M 12.373517,25.193674 C 10.613585,25.014131 9.33149,24.658576 7.9232628,23.959526 6.7052446,23.3549 5.7222806,22.64335 4.7598315,21.669582 2.8755899,19.763174 1.7389412,17.42727 1.3823593,14.728612 c -0.075505,-0.571429 -0.075505,-2.319999 0,-2.891422 C 1.9181128,7.7825447 4.3102298,4.4111628 7.9433016,2.5903893 10.672894,1.2224087 13.931665,0.9742227 16.862273,1.9111199 c 3.92026,1.2532814 6.919792,4.4384064 7.942298,8.4337241 0.251515,0.982757 0.339357,1.722752 0.34323,2.891422 0.0026,0.789278 -0.018,1.19954 -0.08317,1.65557 -0.373508,2.61362 -1.549869,4.979498 -3.394026,6.826015 -0.967185,0.968419 -1.917281,1.644798 -3.187799,2.269405 -1.662275,0.817201 -3.144253,1.174525 -5.013353,1.208782 -0.50017,0.0091 -0.993345,0.0081 -1.095943,-0.0025 z m -2.305281,-6.156331 c 0.139316,-0.04125 0.34774,-0.128899 0.463165,-0.194721 0.115423,-0.06582 0.771232,-0.676505 1.457353,-1.357066 l 1.247492,-1.237388 1.224207,1.216066 c 0.673315,0.668837 1.311748,1.270536 1.41874,1.337103 0.374322,0.232902 0.737307,0.322366 1.227863,0.302623 0.378864,-0.01523 0.488988,-0.03937 0.760239,-0.166602 0.42362,-0.198695 0.824997,-0.600174 1.023187,-1.02344 0.269099,-0.574708 0.230566,-1.359504 -0.09454,-1.925548 -0.06648,-0.115745 -0.677095,-0.77183 -1.356922,-1.457959 L 16.202973,13.282898 17.43902,12.03539 c 0.679827,-0.686128 1.290442,-1.342213 1.356922,-1.457959 0.32511,-0.566043 0.363643,-1.3508398 0.09454,-1.9255478 C 18.692292,8.2286178 18.290915,7.827139 17.867295,7.6284433 17.596044,7.5012124 17.48592,7.4770815 17.107056,7.4618345 16.6165,7.4420831 16.253515,7.5315609 15.879193,7.7644642 15.772201,7.8310348 15.133768,8.4327308 14.460453,9.1015675 L 13.236246,10.317634 11.988754,9.0802457 C 11.302633,8.399685 10.646557,7.7887454 10.530808,7.7226161 9.9627243,7.3980308 9.1794839,7.359825 8.6052643,7.6287053 8.1817171,7.8270244 7.780397,8.2283407 7.582077,8.6518879 7.3129787,9.2265959 7.3515114,10.011392 7.67662,10.577436 c 0.066477,0.115745 0.6770961,0.771831 1.3569224,1.457959 l 1.2360486,1.247507 -1.2360486,1.247514 C 8.3537161,15.216544 7.7431005,15.87263 7.67662,15.988375 c -0.3251085,0.566044 -0.3636412,1.35084 -0.094543,1.925548 0.2448857,0.522993 0.7415573,0.957981 1.2937498,1.133073 0.2667531,0.08459 0.8913857,0.07952 1.1924092,-0.0097 z"
       id="path4262" /></g></svg>
