<?xml version="1.0" encoding="UTF-8" standalone="no"?>
<!-- Created with Inkscape (http://www.inkscape.org/) -->

<svg
   width="100"
   height="100"
   viewBox="0 0 26.458334 26.458334"
   version="1.1"
   id="svg7271"
   xml:space="preserve"
   inkscape:version="1.2 (dc2aedaf03, 2022-05-15)"
   sodipodi:docname="confirm.svg"
   xmlns:inkscape="http://www.inkscape.org/namespaces/inkscape"
   xmlns:sodipodi="http://sodipodi.sourceforge.net/DTD/sodipodi-0.dtd"
   xmlns="http://www.w3.org/2000/svg"
   xmlns:svg="http://www.w3.org/2000/svg"><sodipodi:namedview
     id="namedview7273"
     pagecolor="#ffffff"
     bordercolor="#666666"
     borderopacity="1.0"
     inkscape:showpageshadow="2"
     inkscape:pageopacity="0.0"
     inkscape:pagecheckerboard="0"
     inkscape:deskcolor="#d1d1d1"
     inkscape:document-units="mm"
     showgrid="true"
     inkscape:zoom="5.265421"
     inkscape:cx="40.262688"
     inkscape:cy="65.996623"
     inkscape:window-width="1920"
     inkscape:window-height="1051"
     inkscape:window-x="-9"
     inkscape:window-y="-9"
     inkscape:window-maximized="1"
     inkscape:current-layer="layer1"><inkscape:grid
       type="xygrid"
       id="grid8877"
       originx="0"
       originy="0" /></sodipodi:namedview><defs
     id="defs7268" /><g
     inkscape:label="Слой 1"
     inkscape:groupmode="layer"
     id="layer1"><path
       style="fill:#808c91;fill-opacity:0.901961;stroke-width:0.141564"
       d="M 11.031748,24.890578 C 8.3109647,24.396754 5.6243134,22.80821 3.9021493,20.675047 3.0363499,19.602622 1.8941436,17.318451 1.5486859,15.968622 1.2059672,14.629489 1.2030017,11.688449 1.5429795,10.306079 1.6770198,9.7610593 2.098312,8.6780972 2.4791838,7.8994982 3.7077971,5.3879037 5.4315009,3.6673256 7.9365623,2.4520168 9.9219045,1.4888456 10.93451,1.258016 13.174415,1.258016 c 2.246391,0 3.261034,0.2324982 5.237853,1.2002217 1.663388,0.8142867 2.886046,1.7594098 3.959302,3.0605697 3.301167,4.0021569 3.646747,9.7046346 0.852041,14.0596866 -2.612086,4.070471 -7.440848,6.174397 -12.191861,5.312084 z m 0.37312,-4.794537 C 11.938771,19.811635 22.632705,9.0363706 22.834455,8.57953 23.035418,8.1244693 22.946986,7.3413262 22.641009,6.8664034 22.126777,6.0682375 20.773532,5.7323362 20.036355,6.2198777 19.843846,6.3471964 17.633094,8.4956283 15.123575,10.99417 L 10.560812,15.536974 8.4700861,13.463606 C 7.1734406,12.177724 6.2282522,11.35245 5.9815098,11.290748 4.8821012,11.015817 3.758893,11.616701 3.4792824,12.629367 c -0.2785788,1.008932 -0.081068,1.295885 3.0245683,4.394295 1.5894031,1.585703 3.0397494,2.966238 3.2229929,3.067856 0.4335384,0.24042 1.2311514,0.242571 1.6780244,0.0045 z"
       id="path1747" /></g></svg>
