<?xml version="1.0" encoding="UTF-8" standalone="no"?>
<!-- Created with Inkscape (http://www.inkscape.org/) -->

<svg
   width="100"
   height="100"
   viewBox="0 0 26.458334 26.458334"
   version="1.1"
   id="svg7271"
   xml:space="preserve"
   inkscape:version="1.2 (dc2aedaf03, 2022-05-15)"
   sodipodi:docname="dropdown.svg"
   xmlns:inkscape="http://www.inkscape.org/namespaces/inkscape"
   xmlns:sodipodi="http://sodipodi.sourceforge.net/DTD/sodipodi-0.dtd"
   xmlns="http://www.w3.org/2000/svg"
   xmlns:svg="http://www.w3.org/2000/svg"><sodipodi:namedview
     id="namedview7273"
     pagecolor="#ffffff"
     bordercolor="#666666"
     borderopacity="1.0"
     inkscape:showpageshadow="2"
     inkscape:pageopacity="0.0"
     inkscape:pagecheckerboard="0"
     inkscape:deskcolor="#d1d1d1"
     inkscape:document-units="mm"
     showgrid="true"
     inkscape:zoom="6.6637256"
     inkscape:cx="67.229659"
     inkscape:cy="94.166543"
     inkscape:window-width="1920"
     inkscape:window-height="1051"
     inkscape:window-x="-9"
     inkscape:window-y="-9"
     inkscape:window-maximized="1"
     inkscape:current-layer="layer1"><inkscape:grid
       type="xygrid"
       id="grid8877"
       originx="0"
       originy="0" /></sodipodi:namedview><defs
     id="defs7268" /><g
     inkscape:label="Слой 1"
     inkscape:groupmode="layer"
     id="layer1"><path
       style="fill:#808c91;fill-opacity:0.901961;stroke-width:0.104836"
       d="m 31.583349,29.84634 c -0.456838,-0.22517 -0.83152,-0.686121 -0.967157,-1.189828 -0.0736,-0.273326 -0.100844,-2.599665 -0.08138,-6.948363 l 0.02924,-6.537469 0.262089,-0.387153 c 0.152081,-0.224651 0.479745,-0.496411 0.780643,-0.647453 l 0.518553,-0.2603 h 3.641802 3.641801 l 0.864512,1.044211 0.864511,1.044209 4.515176,0.03035 4.515175,0.03035 0.4879,0.286815 c 0.33882,0.199179 0.555043,0.425515 0.70764,0.74074 0.214562,0.443227 0.219741,0.583929 0.219741,5.97029 0,3.642672 -0.03787,5.616605 -0.111505,5.811487 -0.15174,0.401614 -0.604145,0.867327 -1.01211,1.041883 -0.277954,0.118928 -1.939158,0.143921 -9.435207,0.141955 -8.161009,-0.0021 -9.133238,-0.01982 -9.441441,-0.171737 z m 20.836646,-7.439565 c -0.0021,-4.755195 -0.01623,-5.154506 -0.195881,-5.550039 -0.278532,-0.613239 -0.785309,-1.148026 -1.35275,-1.427514 -0.486515,-0.23963 -0.554794,-0.24373 -4.91986,-0.29542 l -4.426499,-0.05242 -0.76654,-0.889839 c -0.421596,-0.489406 -0.882825,-0.948678 -1.024953,-1.020597 -0.189607,-0.09595 -1.119772,-0.131176 -3.493327,-0.132309 -2.906352,-0.0014 -3.228448,-0.01839 -3.171277,-0.167374 0.035,-0.09121 0.06363,-0.207503 0.06363,-0.25844 0,-0.187824 0.688686,-0.869391 1.017142,-1.006628 0.263092,-0.109927 1.171564,-0.141638 4.057731,-0.141638 h 3.718743 l 0.871181,1.04069 0.871182,1.040692 4.455516,0.01 c 4.100756,0.0092 4.489559,0.02543 4.883096,0.204166 0.510681,0.23194 0.842855,0.626152 0.990908,1.175975 0.07046,0.2617 0.09827,2.335651 0.07898,5.891118 l -0.02978,5.487232 -0.246888,0.359125 c -0.314013,0.456766 -0.655671,0.712617 -1.059457,0.793374 l -0.318607,0.06372 -0.0023,-5.123842 z"
       id="path308" /><path
       style="fill:#808c91;fill-opacity:0.901961;stroke-width:0.0760729"
       d="M 7.3377378,13.487877 1.4982342,6.6610802 H 13.212741 24.927247 l -5.839504,6.8267968 c -3.211728,3.754739 -5.855479,6.826798 -5.875002,6.826798 -0.01952,0 -2.663275,-3.072059 -5.8750032,-6.826798 z"
       id="path314" /></g></svg>
