<?xml version="1.0" encoding="UTF-8" standalone="no"?>
<!-- Created with Inkscape (http://www.inkscape.org/) -->

<svg
   width="100"
   height="100"
   viewBox="0 0 26.458334 26.458334"
   version="1.1"
   id="svg7271"
   xml:space="preserve"
   inkscape:version="1.2 (dc2aedaf03, 2022-05-15)"
   sodipodi:docname="edit.svg"
   xmlns:inkscape="http://www.inkscape.org/namespaces/inkscape"
   xmlns:sodipodi="http://sodipodi.sourceforge.net/DTD/sodipodi-0.dtd"
   xmlns="http://www.w3.org/2000/svg"
   xmlns:svg="http://www.w3.org/2000/svg"><sodipodi:namedview
     id="namedview7273"
     pagecolor="#ffffff"
     bordercolor="#666666"
     borderopacity="1.0"
     inkscape:showpageshadow="2"
     inkscape:pageopacity="0.0"
     inkscape:pagecheckerboard="0"
     inkscape:deskcolor="#d1d1d1"
     inkscape:document-units="mm"
     showgrid="true"
     inkscape:zoom="7.5578539"
     inkscape:cx="52.925077"
     inkscape:cy="55.24055"
     inkscape:window-width="1920"
     inkscape:window-height="1051"
     inkscape:window-x="-9"
     inkscape:window-y="-9"
     inkscape:window-maximized="1"
     inkscape:current-layer="layer1"><inkscape:grid
       type="xygrid"
       id="grid8877"
       originx="0"
       originy="0" /></sodipodi:namedview><defs
     id="defs7268" /><g
     inkscape:label="Слой 1"
     inkscape:groupmode="layer"
     id="layer1"><path
       style="fill:#808c91;fill-opacity:0.901961;stroke-width:0.105896"
       d="M 1.6747471,23.451999 C 1.8674245,22.542865 2.201231,20.941272 2.4165306,19.8929 L 2.8079913,17.986768 11.148028,9.6307483 19.488064,1.274727 20.107316,1.3975988 c 1.239371,0.245915 2.418078,1.0267758 3.61462,2.3945853 0.665697,0.7609816 1.141026,1.6790502 1.309848,2.5298814 l 0.122871,0.6192532 -8.356021,8.3400353 -8.3560217,8.340038 -1.9061319,0.391456 C 5.4881096,24.22815 3.8865144,24.561955 2.9773833,24.754635 L 1.3244189,25.104964 Z M 7.07869,22.968914 C 8.103782,22.737836 8.2683305,22.668428 8.5710197,22.339416 L 8.9112208,21.969631 8.7447829,21.407799 C 8.4964767,20.56961 8.1128079,19.975999 7.2830953,19.146287 6.4533815,18.316573 5.8597697,17.932904 5.0215807,17.684599 L 4.4597462,17.51816 4.0868579,17.859889 c -0.335455,0.307421 -0.398385,0.458521 -0.6268519,1.505058 -0.1396787,0.639831 -0.255152,1.218714 -0.2566081,1.286404 -0.00166,0.0677 0.3123055,0.347821 0.697249,0.622509 0.4357146,0.310921 0.9002899,0.774093 1.230814,1.227101 0.2920095,0.400218 0.5903626,0.727667 0.6630139,0.727667 0.072647,0 0.6505431,-0.11687 1.2842152,-0.259714 z"
       id="path314" /></g></svg>
