<?xml version="1.0" encoding="UTF-8" standalone="no"?>
<!-- Copyright 2000-2021 JetBrains s.r.o. Use of this source code is governed by the Apache 2.0 license that can be found in the LICENSE file. -->

<svg
   width="128"
   height="128"
   viewBox="0 0 128 128"
   version="1.1"
   id="svg5664"
   sodipodi:docname="search.svg"
   inkscape:version="1.3.2 (091e20e, 2023-11-25, custom)"
   xmlns:inkscape="http://www.inkscape.org/namespaces/inkscape"
   xmlns:sodipodi="http://sodipodi.sourceforge.net/DTD/sodipodi-0.dtd"
   xmlns="http://www.w3.org/2000/svg"
   xmlns:svg="http://www.w3.org/2000/svg">
  <defs
     id="defs5668" />
  <sodipodi:namedview
     id="namedview5666"
     pagecolor="#ffffff"
     bordercolor="#666666"
     borderopacity="1.0"
     inkscape:showpageshadow="2"
     inkscape:pageopacity="0.0"
     inkscape:pagecheckerboard="0"
     inkscape:deskcolor="#d1d1d1"
     showgrid="true"
     inkscape:zoom="5.3230218"
     inkscape:cx="91.395455"
     inkscape:cy="66.409647"
     inkscape:window-width="1920"
     inkscape:window-height="1009"
     inkscape:window-x="-8"
     inkscape:window-y="-8"
     inkscape:window-maximized="1"
     inkscape:current-layer="svg5664">
    <inkscape:grid
       id="grid1"
       units="px"
       originx="0"
       originy="0"
       spacingx="1"
       spacingy="1"
       empcolor="#0099e5"
       empopacity="0.30196078"
       color="#0099e5"
       opacity="0.14901961"
       empspacing="5"
       dotted="false"
       gridanglex="30"
       gridanglez="30"
       visible="true" />
  </sodipodi:namedview>
  <path
     fill="#7f8b91"
     fill-opacity="0.9"
     fill-rule="evenodd"
     d="M 94.328285,83.725937 123.56053,112.95818 113.08557,123.43315 83.895682,94.243255 C 75.673864,100.36076 65.483743,103.9809 54.448097,103.9809 27.176577,103.9809 5.0686426,81.872973 5.0686426,54.60145 5.0686426,27.329934 27.176577,5.222 54.448097,5.222 c 27.271521,0 49.379453,22.107934 49.379453,49.37945 0,10.891539 -3.5262,20.959486 -9.499265,29.124487 z M 54.448097,91.105 C 76.265311,91.105 90.952,76.418666 90.952,54.60145 90.952,32.784237 76.265214,18.098 54.448,18.098 c -21.817217,0 -36.503,14.686237 -36.503,36.50345 0,21.817216 14.68588,36.50355 36.503097,36.50355 z"
     id="path5662"
     style="stroke-width:9.87589"
     sodipodi:nodetypes="ccccsssscsssss" />
</svg>
