<?xml version="1.0" encoding="UTF-8" standalone="no"?>
<!-- Created with Inkscape (http://www.inkscape.org/) -->

<svg
   width="100"
   height="100"
   viewBox="0 0 26.458334 26.458334"
   version="1.1"
   id="svg7271"
   xml:space="preserve"
   inkscape:version="1.2 (dc2aedaf03, 2022-05-15)"
   sodipodi:docname="time.svg"
   xmlns:inkscape="http://www.inkscape.org/namespaces/inkscape"
   xmlns:sodipodi="http://sodipodi.sourceforge.net/DTD/sodipodi-0.dtd"
   xmlns="http://www.w3.org/2000/svg"
   xmlns:svg="http://www.w3.org/2000/svg"><sodipodi:namedview
     id="namedview7273"
     pagecolor="#ffffff"
     bordercolor="#666666"
     borderopacity="1.0"
     inkscape:showpageshadow="2"
     inkscape:pageopacity="0.0"
     inkscape:pagecheckerboard="0"
     inkscape:deskcolor="#d1d1d1"
     inkscape:document-units="mm"
     showgrid="true"
     inkscape:zoom="4.4984138"
     inkscape:cx="62.466463"
     inkscape:cy="72.80344"
     inkscape:window-width="1920"
     inkscape:window-height="1051"
     inkscape:window-x="-9"
     inkscape:window-y="-9"
     inkscape:window-maximized="1"
     inkscape:current-layer="layer1"><inkscape:grid
       type="xygrid"
       id="grid8877"
       originx="0"
       originy="0" /></sodipodi:namedview><defs
     id="defs7268" /><g
     inkscape:label="Слой 1"
     inkscape:groupmode="layer"
     id="layer1"><path
       style="fill:#808c91;stroke-width:0.101589;fill-opacity:0.89999998"
       d="M 11.753948,24.608843 C 10.140596,24.420529 8.2831165,23.723389 6.8806931,22.779841 5.9897025,22.180388 4.4574055,20.662987 3.8374442,19.766179 2.3070015,17.552317 1.6167979,14.846513 1.8955225,12.15327 2.1051131,10.128052 2.7323552,8.4035304 3.8445388,6.7947014 4.4765904,5.8804052 6.0917782,4.295421 6.9947386,3.7034073 10.271344,1.5551475 14.730127,1.2748266 18.252414,2.9956458 c 1.88403,0.9204456 3.767258,2.6825582 4.922165,4.6056095 1.818773,3.0284667 1.963895,7.4068827 0.354673,10.7007467 -0.772189,1.580564 -2.427233,3.468561 -3.924912,4.477343 -2.260528,1.522613 -5.003349,2.161817 -7.850392,1.829498 z m 3.063212,-1.261841 c 2.138687,-0.326095 3.800506,-1.150806 5.410951,-2.685298 2.680352,-2.553939 3.722024,-5.941294 2.962894,-9.634861 C 22.805442,9.1508777 21.98075,7.6996324 20.404603,6.1234852 18.813426,4.532308 17.402024,3.7356003 15.426699,3.3135606 14.167526,3.044531 12.022767,3.0690663 10.810461,3.3663725 9.6879255,3.6416584 8.2081755,4.3323782 7.3023645,5.0038832 6.4662855,5.6236941 5.2493532,6.885331 4.7302404,7.6704953 2.3794606,11.226076 2.5133969,15.954464 5.0607788,19.339652 c 2.3276157,3.093141 5.9619382,4.585912 9.7563812,4.007354 z m 0.08011,-6.325738 -3.02621,-3.020036 V 9.8241269 c 0,-3.9176892 0.01154,-4.1875417 0.185782,-4.3452306 0.249802,-0.2260682 0.58307,-0.211997 0.830116,0.035046 0.1961,0.1960988 0.203181,0.3386328 0.203181,4.0896851 v 3.8865066 l 2.793721,2.792335 c 2.493516,2.49228 2.793721,2.827271 2.793721,3.117436 0,0.333293 -0.289577,0.641391 -0.602835,0.641391 -0.0832,0 -1.513061,-1.359017 -3.177476,-3.020036 z"
       id="path8907" /></g></svg>
