<?xml version="1.0" encoding="UTF-8" standalone="no"?>
<!-- Created with Inkscape (http://www.inkscape.org/) -->

<svg
   width="100"
   height="100"
   viewBox="0 0 26.458334 26.458334"
   version="1.1"
   id="svg7271"
   xml:space="preserve"
   inkscape:version="1.2 (dc2aedaf03, 2022-05-15)"
   sodipodi:docname="detail.svg"
   xmlns:inkscape="http://www.inkscape.org/namespaces/inkscape"
   xmlns:sodipodi="http://sodipodi.sourceforge.net/DTD/sodipodi-0.dtd"
   xmlns="http://www.w3.org/2000/svg"
   xmlns:svg="http://www.w3.org/2000/svg"><sodipodi:namedview
     id="namedview7273"
     pagecolor="#ffffff"
     bordercolor="#666666"
     borderopacity="1.0"
     inkscape:showpageshadow="2"
     inkscape:pageopacity="0.0"
     inkscape:pagecheckerboard="0"
     inkscape:deskcolor="#d1d1d1"
     inkscape:document-units="mm"
     showgrid="true"
     inkscape:zoom="5.6947168"
     inkscape:cx="42.846731"
     inkscape:cy="54.524222"
     inkscape:window-width="1920"
     inkscape:window-height="1051"
     inkscape:window-x="-9"
     inkscape:window-y="-9"
     inkscape:window-maximized="1"
     inkscape:current-layer="layer1"><inkscape:grid
       type="xygrid"
       id="grid8877"
       originx="0"
       originy="0" /></sodipodi:namedview><defs
     id="defs7268" /><g
     inkscape:label="Слой 1"
     inkscape:groupmode="layer"
     id="layer1"><g
       id="g8875"
       transform="matrix(0.40421231,0,0,0.40421231,8.8519268,7.9744062)"><path
         style="fill:#000000;stroke-width:0.264583"
         d="m -3.608984,38.476747 c -1.048131,-0.47597 -1.355585,-0.95949 -7.9375,-12.48315 -5.886981,-10.306947 -6.847134,-12.139937 -6.847134,-13.071537 0,-0.9316 0.960153,-2.76459 6.847134,-13.07153952 6.581915,-11.52365048 6.889369,-12.00718048 7.9375,-12.48315048 1.018842,-0.46266 1.958158,-0.49514 14.319533,-0.49514 12.361371,0 13.300691,0.0325 14.319531,0.49514 1.04813,0.47597 1.35559,0.9595 7.9375,12.48315048 C 38.854566,10.15747 39.814726,11.99046 39.814726,12.92206 c 0,0.9316 -0.96016,2.76459 -6.847146,13.071537 -6.58191,11.52366 -6.88937,12.00718 -7.9375,12.48315 -1.01884,0.46267 -1.95816,0.49515 -14.319531,0.49515 -12.361375,0 -13.300691,-0.0325 -14.319533,-0.49515 z M 29.75845,24.244517 c 3.4694,-6.069157 6.308006,-11.163787 6.308006,-11.321407 0,-0.15761 -2.836916,-5.2527195 -6.304246,-11.3224595 l -6.30425,-11.03588 H 10.710549 -2.036862 l -6.304246,11.03588 c -3.467335,6.06974 -6.304246,11.1648495 -6.304246,11.3224595 0,0.15762 2.838604,5.25225 6.308007,11.321407 l 6.308008,11.03483 H 10.710549 23.45044 Z m -21.032276,1.74285 c -1.778272,-0.2863 -4.77332,-1.71969 -6.26489,-2.99829 C -2.011754,19.15471 -3.198896,12.00919 -0.23149903,6.7809605 2.066687,2.7318005 6.206839,0.35060048 10.936858,0.35749048 16.689394,0.36549048 21.1172,3.3962505 23.20262,8.7521305 23.79189,10.26553 23.89801,10.948 23.89219,13.18664 c -0.0106,4.06774 -1.26811,6.94465 -4.21137,9.634617 -1.747011,1.59667 -3.62568,2.54514 -6.064469,3.06173 -2.045893,0.43337 -2.753,0.44846 -4.890177,0.10438 z m 6.55329,-4.453227 c 1.978366,-1.05661 3.311398,-2.45863 4.258866,-4.47929 0.58235,-1.24198 0.69722,-1.85839 0.69722,-3.74148 0,-2.01405 -0.0928,-2.44293 -0.86962,-4.0209695 -0.964036,-1.95823 -2.512248,-3.4987 -4.497097,-4.47461 -1.035023,-0.50889 -1.676593,-0.61469 -3.761409,-0.62026 -2.174348,-0.006 -2.715199,0.0878 -4.007898,0.69389 -1.975552,0.9262 -3.533082,2.52991 -4.533635,4.66804 C 1.130688,12.62642 1.491228,15.86526 3.609325,18.93294 c 0.878605,1.2725 2.195841,2.26503 4.037476,3.04223 1.24474,0.525297 1.828932,0.609017 3.725206,0.533867 1.948418,-0.0772 2.470592,-0.207507 3.907457,-0.974897 z"
         id="path8717" /><path
         style="fill:#999999;stroke:#000000;stroke-width:0.148189;stroke-linejoin:round;stroke-opacity:0.313214"
         d="M -6.8307981,26.685191 C -11.762033,18.034982 -13.657344,14.666551 -14.245534,13.507382 l -0.324014,-0.638545 2.077466,-3.7261536 c 1.142608,-2.0493858 3.9615,-7.0218723 6.2642084,-11.0499736 l 4.1867428,-7.3238173 12.7382158,-0.037806 12.738217,-0.037809 4.658328,8.1753841 c 5.930786,10.4085495 7.805732,13.7832564 7.805732,14.0495124 0,0.262866 -2.539473,4.834223 -8.180054,14.725083 l -4.32222,7.579093 -12.678471,0.0037 -12.6784678,0.0037 z M 14.149842,25.819138 c 4.917509,-1.241499 8.651534,-5.065451 9.554446,-9.784543 0.284191,-1.485334 0.277437,-4.899067 -0.01188,-6.009865 C 22.884225,6.9219296 20.589057,3.7362749 18.05092,2.1944367 15.453738,0.61673427 11.867414,-0.04345935 8.675473,0.46854908 3.7792209,1.2539409 -0.23430444,4.9384172 -1.5494767,9.8552063 c -0.2518701,0.9416177 -0.3167222,1.6071957 -0.3171667,3.2550287 -7.937e-4,2.527646 0.3906785,4.23546 1.43309977,6.253773 1.29274357,2.502993 2.97997033,4.126114 5.63205303,5.418069 3.237275,1.577033 5.6879356,1.860955 8.9513326,1.037061 z"
         id="path8859" /></g></g></svg>
