<?xml version="1.0" encoding="UTF-8" standalone="no"?>
<!-- Created with Inkscape (http://www.inkscape.org/) -->

<svg
   width="100"
   height="100"
   viewBox="0 0 26.458334 26.458334"
   version="1.1"
   id="svg7271"
   xml:space="preserve"
   inkscape:version="1.2 (dc2aedaf03, 2022-05-15)"
   sodipodi:docname="directory.svg"
   xmlns:inkscape="http://www.inkscape.org/namespaces/inkscape"
   xmlns:sodipodi="http://sodipodi.sourceforge.net/DTD/sodipodi-0.dtd"
   xmlns="http://www.w3.org/2000/svg"
   xmlns:svg="http://www.w3.org/2000/svg"><sodipodi:namedview
     id="namedview7273"
     pagecolor="#ffffff"
     bordercolor="#666666"
     borderopacity="1.0"
     inkscape:showpageshadow="2"
     inkscape:pageopacity="0.0"
     inkscape:pagecheckerboard="0"
     inkscape:deskcolor="#d1d1d1"
     inkscape:document-units="mm"
     showgrid="true"
     inkscape:zoom="4.4841543"
     inkscape:cx="27.206914"
     inkscape:cy="75.488035"
     inkscape:window-width="1920"
     inkscape:window-height="1051"
     inkscape:window-x="-9"
     inkscape:window-y="-9"
     inkscape:window-maximized="1"
     inkscape:current-layer="layer1"><inkscape:grid
       type="xygrid"
       id="grid8877"
       originx="0"
       originy="0" /></sodipodi:namedview><defs
     id="defs7268" /><g
     inkscape:label="Слой 1"
     inkscape:groupmode="layer"
     id="layer1"><path
       style="fill:#808c91;fill-opacity:0.901961;stroke-width:0.104836"
       d="M 2.5138783,22.439215 C 2.0570412,22.214045 1.682359,21.753094 1.5467219,21.249387 1.4731262,20.976061 1.4458775,18.649722 1.4653403,14.301024 L 1.4945823,7.763555 1.756672,7.3764019 C 1.9087527,7.1517511 2.2364168,6.8799916 2.5373144,6.7289497 L 3.0558673,6.4686498 h 3.641802 3.6418017 l 0.864512,1.0442101 0.864511,1.0442092 4.515176,0.030353 4.515175,0.030353 0.4879,0.2868157 c 0.33882,0.1991789 0.555043,0.4255147 0.70764,0.7407394 0.214562,0.4432268 0.219741,0.5839288 0.219741,5.9702898 0,3.642672 -0.03787,5.616605 -0.111505,5.811487 -0.15174,0.401614 -0.604145,0.867327 -1.01211,1.041883 -0.277954,0.118928 -1.939158,0.143921 -9.435207,0.141955 -8.1610097,-0.0021 -9.1332383,-0.01982 -9.4414412,-0.171737 z M 23.350525,14.99965 C 23.348415,10.244455 23.334298,9.8451442 23.154644,9.4496118 22.876112,8.8363723 22.369335,8.3015849 21.801894,8.0220974 21.315379,7.7824675 21.2471,7.7783672 16.882034,7.7266776 L 12.455535,7.6742552 11.688995,6.7844167 C 11.267399,6.2950099 10.80617,5.8357384 10.664042,5.7638192 10.474435,5.6678736 9.5442694,5.6326437 7.1707152,5.6315099 4.2643632,5.630123 3.9422666,5.6131212 3.9994373,5.4641368 c 0.034999,-0.091205 0.063634,-0.2075032 0.063634,-0.2584406 0,-0.1878238 0.6886866,-0.8693905 1.0171424,-1.0066282 C 5.3433055,4.0891412 6.2517778,4.05743 9.1379444,4.05743 h 3.7187436 l 0.871181,1.0406905 0.871182,1.0406914 4.455516,0.00997 c 4.100756,0.00917 4.489559,0.025427 4.883096,0.2041661 0.510681,0.2319403 0.842855,0.626152 0.990908,1.1759753 0.07046,0.2616997 0.09827,2.3356508 0.07898,5.8911177 l -0.02978,5.487232 -0.246888,0.359125 c -0.314013,0.456766 -0.655671,0.712617 -1.059457,0.793374 l -0.318607,0.06372 -0.0023,-5.123842 z"
       id="path308" /></g></svg>
