<?xml version="1.0" encoding="UTF-8" standalone="no"?>
<!-- Copyright 2000-2021 JetBrains s.r.o. Use of this source code is governed by the Apache 2.0 license that can be found in the LICENSE file. -->

<svg
   width="19"
   height="16"
   viewBox="0 0 19 16"
   version="1.1"
   id="svg5664"
   sodipodi:docname="search.svg"
   inkscape:version="1.2 (dc2aedaf03, 2022-05-15)"
   xmlns:inkscape="http://www.inkscape.org/namespaces/inkscape"
   xmlns:sodipodi="http://sodipodi.sourceforge.net/DTD/sodipodi-0.dtd"
   xmlns="http://www.w3.org/2000/svg"
   xmlns:svg="http://www.w3.org/2000/svg">
  <defs
     id="defs5668" />
  <sodipodi:namedview
     id="namedview5666"
     pagecolor="#ffffff"
     bordercolor="#666666"
     borderopacity="1.0"
     inkscape:showpageshadow="2"
     inkscape:pageopacity="0.0"
     inkscape:pagecheckerboard="0"
     inkscape:deskcolor="#d1d1d1"
     showgrid="false"
     inkscape:zoom="21.292087"
     inkscape:cx="8.876537"
     inkscape:cy="7.4910458"
     inkscape:window-width="1920"
     inkscape:window-height="1051"
     inkscape:window-x="-9"
     inkscape:window-y="-9"
     inkscape:window-maximized="1"
     inkscape:current-layer="svg5664" />
  <path
     fill="#7f8b91"
     fill-opacity="0.9"
     fill-rule="evenodd"
     d="m 12.638136,9.9490487 2.959961,2.9599613 -1.06066,1.06066 -2.955672,-2.955672 C 10.749251,11.633437 9.717433,12 8.6,12 c -2.7614237,0 -5,-2.2385762 -5,-5 0,-2.7614237 2.2385763,-5 5,-5 2.761424,0 5,2.2385763 5,5 0,1.1028408 -0.357052,2.1222877 -0.961864,2.9490487 z M 8.6,11 c 2.209139,0 4,-1.790861 4,-4 0,-2.209139 -1.790861,-4 -4,-4 -2.209139,0 -4,1.790861 -4,4 0,2.209139 1.790861,4 4,4 z"
     id="path5662" />
</svg>
