<?xml version="1.0" encoding="UTF-8" standalone="no"?>
<!-- Created with Inkscape (http://www.inkscape.org/) -->

<svg
   width="100"
   height="100"
   viewBox="0 0 26.458334 26.458334"
   version="1.1"
   id="svg7271"
   xml:space="preserve"
   inkscape:version="1.2 (dc2aedaf03, 2022-05-15)"
   sodipodi:docname="update.svg"
   xmlns:inkscape="http://www.inkscape.org/namespaces/inkscape"
   xmlns:sodipodi="http://sodipodi.sourceforge.net/DTD/sodipodi-0.dtd"
   xmlns="http://www.w3.org/2000/svg"
   xmlns:svg="http://www.w3.org/2000/svg"><sodipodi:namedview
     id="namedview7273"
     pagecolor="#ffffff"
     bordercolor="#666666"
     borderopacity="1.0"
     inkscape:showpageshadow="2"
     inkscape:pageopacity="0.0"
     inkscape:pagecheckerboard="0"
     inkscape:deskcolor="#d1d1d1"
     inkscape:document-units="mm"
     showgrid="true"
     inkscape:zoom="5.9148518"
     inkscape:cx="54.270168"
     inkscape:cy="60.102943"
     inkscape:window-width="1920"
     inkscape:window-height="1051"
     inkscape:window-x="-9"
     inkscape:window-y="-9"
     inkscape:window-maximized="1"
     inkscape:current-layer="layer1"><inkscape:grid
       type="xygrid"
       id="grid8877"
       originx="0"
       originy="0" /></sodipodi:namedview><defs
     id="defs7268" /><g
     inkscape:label="Слой 1"
     inkscape:groupmode="layer"
     id="layer1"><path
       style="fill:#808c91;fill-opacity:0.901961;stroke-width:0.126931"
       d="M 11.22076,23.613128 C 6.871529,22.759825 3.5559183,19.003221 3.1305431,14.446869 3.0741737,13.843068 3.0098165,13.623659 2.9164619,13.717014 2.750911,13.882565 0.51116255,13.897094 0.57014445,13.732234 0.6255564,13.577351 4.2734275,9.3005561 4.3595738,9.2894741 c 0.080257,-0.010323 3.9322234,4.3870689 3.9322234,4.4890069 0,0.133866 -2.1723997,0.07314 -2.4363105,-0.06808 -0.2547152,-0.136323 -0.2593528,-0.120032 -0.1716191,0.602921 0.6996258,5.765142 6.9866224,8.697412 11.4094474,5.321394 0.713499,-0.544626 2.566266,1.152278 1.961264,1.796275 -1.54939,1.64925 -5.268976,2.685356 -7.833819,2.182144 z m 8.900378,-8.680153 c -1.060786,-1.214272 -1.928702,-2.240172 -1.928702,-2.279779 0,-0.133865 2.1724,-0.07314 2.43631,0.06808 0.254717,0.136321 0.259353,0.120029 0.171621,-0.602923 C 20.100303,6.3496282 13.816502,3.4188474 9.3909187,6.7969703 8.8061258,7.2433524 8.8061258,7.2433524 7.9790414,6.2629943 6.9878955,5.0881713 6.9987333,5.2708228 7.8811345,4.6129592 13.916228,0.11356832 22.32264,3.9562154 23.299135,11.660669 c 0.09898,0.780947 0.191179,1.131454 0.27545,1.047183 0.161268,-0.161269 2.396901,-0.168966 2.339503,-0.008 -0.05071,0.14218 -3.441932,4.090449 -3.690586,4.296813 -0.138986,0.115348 -0.558787,-0.296718 -2.102364,-2.063637 z"
       id="path2448" /></g></svg>
